<svg viewBox="0 0 22 22" fill="none" xmlns="http://www.w3.org/2000/svg">
<path d="M6.19984 9.20376C6.19984 9.47449 6.2291 9.694 6.28032 9.85497C6.33886 10.0159 6.41203 10.1916 6.51447 10.3818C6.55105 10.4403 6.56569 10.4989 6.56569 10.5501C6.56569 10.6233 6.52178 10.6964 6.42666 10.7696L5.96569 11.0769C5.89984 11.1208 5.83399 11.1428 5.77545 11.1428C5.70228 11.1428 5.62911 11.1062 5.55594 11.0403C5.45351 10.9306 5.3657 10.8135 5.29253 10.6964C5.21936 10.572 5.14619 10.433 5.06571 10.2647C4.49498 10.9379 3.77792 11.2745 2.91452 11.2745C2.29989 11.2745 1.80966 11.0989 1.45112 10.7476C1.09259 10.3964 0.909668 9.92814 0.909668 9.34279C0.909668 8.72084 1.12918 8.21597 1.57551 7.83549C2.02185 7.45501 2.61452 7.26477 3.36817 7.26477C3.61695 7.26477 3.87304 7.28672 4.14377 7.3233C4.4145 7.35989 4.69254 7.41842 4.98522 7.48427V6.95014C4.98522 6.39405 4.86815 6.00625 4.64132 5.77942C4.40718 5.55259 4.01206 5.44284 3.44866 5.44284C3.19256 5.44284 2.92915 5.47211 2.65842 5.53796C2.3877 5.60381 2.12428 5.6843 1.86819 5.78674C1.75112 5.83796 1.66332 5.86722 1.6121 5.88186C1.56088 5.89649 1.52429 5.90381 1.49503 5.90381C1.39259 5.90381 1.34137 5.83064 1.34137 5.67698V5.31845C1.34137 5.20138 1.356 5.11358 1.39259 5.06236C1.42917 5.01114 1.49503 4.95992 1.59746 4.9087C1.85356 4.777 2.16087 4.66724 2.5194 4.57944C2.87793 4.48432 3.25841 4.44042 3.66085 4.44042C4.53157 4.44042 5.16814 4.63797 5.57789 5.03309C5.98033 5.42821 6.1852 6.0282 6.1852 6.83306V9.20376H6.19984ZM3.22915 10.3159C3.47061 10.3159 3.71938 10.272 3.98279 10.1842C4.24621 10.0964 4.48035 9.93546 4.67791 9.71595C4.79498 9.57693 4.88278 9.42327 4.92668 9.24766C4.97059 9.07206 4.99985 8.85986 4.99985 8.61109V8.30378C4.78766 8.25256 4.56084 8.20865 4.32669 8.17939C4.09255 8.15012 3.86572 8.13549 3.6389 8.13549C3.14866 8.13549 2.79013 8.23061 2.54867 8.42816C2.30721 8.62572 2.19014 8.90377 2.19014 9.26962C2.19014 9.61351 2.27794 9.86961 2.46087 10.0452C2.63647 10.2281 2.89257 10.3159 3.22915 10.3159ZM9.10467 11.1062C8.97297 11.1062 8.88516 11.0842 8.82663 11.033C8.76809 10.9891 8.71687 10.8867 8.67297 10.7476L6.95348 5.09163C6.90958 4.94529 6.88763 4.85017 6.88763 4.79895C6.88763 4.68188 6.94617 4.61602 7.06324 4.61602H7.7803C7.91932 4.61602 8.01445 4.63797 8.06566 4.68919C8.1242 4.73309 8.1681 4.83553 8.212 4.97455L9.44125 9.81839L10.5827 4.97455C10.6193 4.82821 10.6632 4.73309 10.7217 4.68919C10.7803 4.64529 10.8827 4.61602 11.0144 4.61602H11.5998C11.7388 4.61602 11.8339 4.63797 11.8924 4.68919C11.951 4.73309 12.0022 4.83553 12.0315 4.97455L13.1875 9.87692L14.4534 4.97455C14.4973 4.82821 14.5485 4.73309 14.5997 4.68919C14.6583 4.64529 14.7534 4.61602 14.8851 4.61602H15.5656C15.6826 4.61602 15.7485 4.67456 15.7485 4.79895C15.7485 4.83553 15.7412 4.87212 15.7338 4.91602C15.7265 4.95992 15.7119 5.01846 15.6826 5.09894L13.9192 10.755C13.8753 10.9013 13.8241 10.9964 13.7656 11.0403C13.707 11.0842 13.6119 11.1135 13.4875 11.1135H12.8583C12.7193 11.1135 12.6241 11.0915 12.5656 11.0403C12.5071 10.9891 12.4558 10.894 12.4266 10.7476L11.2924 6.0282L10.1656 10.7403C10.129 10.8867 10.0851 10.9818 10.0266 11.033C9.96808 11.0842 9.86564 11.1062 9.73393 11.1062H9.10467ZM18.507 11.3037C18.1265 11.3037 17.746 11.2598 17.3802 11.172C17.0143 11.0842 16.729 10.9891 16.5387 10.8793C16.4216 10.8135 16.3412 10.7403 16.3119 10.6745C16.2826 10.6086 16.268 10.5355 16.268 10.4696V10.0964C16.268 9.94278 16.3265 9.86961 16.4363 9.86961C16.4802 9.86961 16.5241 9.87692 16.568 9.89156C16.6119 9.90619 16.6777 9.93546 16.7509 9.96473C16.9997 10.0745 17.2704 10.1623 17.5558 10.2208C17.8485 10.2794 18.1338 10.3086 18.4265 10.3086C18.8875 10.3086 19.246 10.2281 19.4948 10.0672C19.7435 9.90619 19.8753 9.67205 19.8753 9.37205C19.8753 9.16718 19.8094 8.99889 19.6777 8.85986C19.546 8.72084 19.2972 8.59645 18.9387 8.47938L17.8777 8.15012C17.3436 7.98183 16.9485 7.73305 16.707 7.40379C16.4655 7.08184 16.3412 6.72331 16.3412 6.34283C16.3412 6.03551 16.407 5.76479 16.5387 5.53064C16.6704 5.2965 16.846 5.09163 17.0655 4.93065C17.285 4.76236 17.5338 4.63797 17.8265 4.55017C18.1192 4.46237 18.4265 4.42578 18.7484 4.42578C18.9094 4.42578 19.0777 4.4331 19.2387 4.45505C19.407 4.477 19.5606 4.50627 19.7143 4.53554C19.8606 4.57212 19.9996 4.60871 20.1313 4.65261C20.2631 4.69651 20.3655 4.74041 20.4387 4.78431C20.5411 4.84285 20.6143 4.90138 20.6582 4.96724C20.7021 5.02577 20.724 5.10626 20.724 5.2087V5.55259C20.724 5.70625 20.6655 5.78674 20.5557 5.78674C20.4972 5.78674 20.4021 5.75747 20.2777 5.69893C19.8606 5.50869 19.3923 5.41357 18.8728 5.41357C18.4558 5.41357 18.1265 5.47942 17.8997 5.61845C17.6728 5.75747 17.5558 5.96966 17.5558 6.26966C17.5558 6.47453 17.6289 6.65014 17.7753 6.78916C17.9216 6.92818 18.1924 7.06721 18.5802 7.1916L19.6192 7.52086C20.146 7.68915 20.5265 7.92329 20.7533 8.22329C20.9801 8.52328 21.0899 8.86718 21.0899 9.24766C21.0899 9.56229 21.024 9.84766 20.8996 10.0964C20.7679 10.3452 20.5923 10.5647 20.3655 10.7403C20.1387 10.9233 19.8679 11.055 19.5533 11.1501C19.224 11.2525 18.8801 11.3037 18.507 11.3037Z" fill="#D5D5D5"/>
<path d="M19.8899 14.8597C17.4826 16.6377 13.9851 17.5816 10.9778 17.5816C6.76322 17.5816 2.96571 16.0231 0.0974633 13.4329C-0.129363 13.228 0.0755124 12.95 0.34624 13.1109C3.44864 14.9109 7.27541 16.0011 11.2339 16.0011C13.9046 16.0011 16.8387 15.445 19.5386 14.3036C19.9411 14.1207 20.285 14.567 19.8899 14.8597ZM20.8923 13.7182C20.585 13.3231 18.8582 13.528 18.0753 13.6231C17.8411 13.6524 17.8045 13.4475 18.0167 13.2939C19.3923 12.328 21.6533 12.6061 21.9167 12.928C22.1801 13.2573 21.8435 15.5182 20.5557 16.6011C20.3582 16.7694 20.1679 16.6816 20.2557 16.4621C20.5484 15.7377 21.1996 14.106 20.8923 13.7182Z" fill="#FF9900"/>
</svg>
