<svg viewBox="0 0 22 22" fill="none" xmlns="http://www.w3.org/2000/svg">
<path d="M17.1492 6.18737L17.624 6.53111C18.4496 7.1971 18.9244 7.94902 19.0276 8.80836C19.9152 8.63649 21.0505 8.7654 21.5459 9.10913L22 9.38842L21.9174 9.56028C21.7729 9.88254 21.7317 9.96847 21.711 10.0114C20.906 11.6227 19.3166 11.6442 18.5735 11.6227C16.6951 16.3276 12.6906 18.9271 7.28252 18.9271C4.78489 18.9271 2.88586 18.1322 1.60608 16.5639C-0.0865365 14.5015 -0.0865366 11.8161 0.0579548 10.9567L0.099238 10.7848H15.0231C15.8075 10.7848 16.4061 10.57 16.6951 10.3981C16.3855 9.9255 16.2823 9.38842 16.2616 9.08765C16.1997 8.22831 16.4061 7.326 16.819 6.68149L17.1492 6.18737ZM3.97986 8.20682V10.3552H1.70928V8.20682H3.97986ZM6.66327 8.20682V10.3552H4.3927V8.20682H6.66327ZM9.34668 8.20682V10.3552H7.07611V8.20682H9.34668ZM12.0301 8.20682V10.3552H9.75952V8.20682H12.0301ZM14.7135 8.20682V10.3552H12.4429V8.20682H14.7135ZM12.0301 5.6288V7.77715H9.75952V5.6288H12.0301ZM9.34668 5.6288V7.77715H7.07611V5.6288H9.34668ZM6.66327 5.6288V7.77715H4.3927V5.6288H6.66327ZM12.0301 3.05078V5.19913H9.75952V3.05078H12.0301Z" fill="#2396ED"/>
</svg>
