<svg viewBox="0 0 22 22" fill="none" xmlns="http://www.w3.org/2000/svg">
<path d="M7.36198 22.0001C9.38598 22.0001 11.0286 20.3574 11.0286 18.3334V14.6667H7.36198C5.33798 14.6667 3.69531 16.3094 3.69531 18.3334C3.69531 20.3574 5.33798 22.0001 7.36198 22.0001Z" fill="#0ACF83"/>
<path d="M3.69531 10.9999C3.69531 8.97592 5.33798 7.33325 7.36198 7.33325H11.0286V14.6666H7.36198C5.33798 14.6666 3.69531 13.0239 3.69531 10.9999Z" fill="#A259FF"/>
<path d="M3.69531 3.66667C3.69531 1.64267 5.33798 0 7.36198 0H11.0286V7.33333H7.36198C5.33798 7.33333 3.69531 5.69067 3.69531 3.66667Z" fill="#F24E1E"/>
<path d="M11.0286 0H14.6952C16.7192 0 18.3619 1.64267 18.3619 3.66667C18.3619 5.69067 16.7192 7.33333 14.6952 7.33333H11.0286V0Z" fill="#FF7262"/>
<path d="M18.3619 10.9999C18.3619 13.0239 16.7192 14.6666 14.6952 14.6666C12.6712 14.6666 11.0286 13.0239 11.0286 10.9999C11.0286 8.97592 12.6712 7.33325 14.6952 7.33325C16.7192 7.33325 18.3619 8.97592 18.3619 10.9999Z" fill="#1ABCFE"/>
</svg>
