<svg viewBox="0 0 22 22" fill="none" xmlns="http://www.w3.org/2000/svg">
<path d="M3.00781 17.7576L3.141 17.5712L9.44124 5.61673L9.45455 5.49018L6.67726 0.273465C6.44458 -0.163529 5.78953 -0.0530416 5.71317 0.436139L3.00781 17.7576Z" fill="#FFC24A"/>
<path d="M3.08643 17.6153L3.18718 17.4189L9.42141 5.58972L6.65107 0.35179C6.42083 -0.0806252 5.83615 0.0296062 5.76059 0.513661L3.08643 17.6153Z" fill="#FFA712"/>
<path d="M11.4792 9.43621L13.5471 7.31837L11.4786 3.36961C11.2822 2.99583 10.734 2.99475 10.5397 3.36961L9.43457 5.47725V5.65675L11.4792 9.43621Z" fill="#F4BD62"/>
<path d="M11.4423 9.3479L13.4527 7.28896L11.4423 3.46087C11.2514 3.09749 10.7876 3.05941 10.5988 3.42384L9.4878 5.56414L9.45459 5.67356L11.4423 9.3479Z" fill="#FFA50E"/>
<path d="M3.00781 17.7578L3.06818 17.6971L3.28753 17.6079L11.3493 9.57614L11.4514 9.2981L9.44035 5.46582L3.00781 17.7578Z" fill="#F6820C"/>
<path d="M11.7374 21.8083L19.0335 17.7392L16.95 4.90748C16.8848 4.50601 16.3923 4.34729 16.1049 4.63516L3.00781 17.7576L10.262 21.8079C10.7205 22.0639 11.2788 22.064 11.7374 21.8083Z" fill="#FDE068"/>
<path d="M18.968 17.7052L16.9003 4.97088C16.8357 4.57246 16.4261 4.40759 16.1409 4.69327L3.08862 17.7328L10.2632 21.743C10.7181 21.997 11.2723 21.9972 11.7273 21.7434L18.968 17.7052Z" fill="#FCCA3F"/>
<path d="M11.7374 21.6883C11.2788 21.944 10.7205 21.9439 10.262 21.6879L3.06624 17.6958L3.00781 17.7575L10.262 21.8078C10.7205 22.0638 11.2788 22.0639 11.7374 21.8082L19.0335 17.7391L19.0156 17.6292L11.7374 21.6883Z" fill="#EEAB37"/>
</svg>
