<svg viewBox="0 0 22 22" fill="none" xmlns="http://www.w3.org/2000/svg">
<circle cx="11" cy="11.6875" r="10.3125" fill="white"/>
<path fill-rule="evenodd" clip-rule="evenodd" d="M11.0001 0.515625C5.06807 0.515625 0.257812 5.32499 0.257812 11.2579C0.257812 16.0041 3.3358 20.0308 7.60404 21.4512C8.1409 21.5507 8.338 21.2182 8.338 20.9345C8.338 20.6783 8.32804 19.8321 8.32341 18.9345C5.3349 19.5843 4.70429 17.667 4.70429 17.667C4.21563 16.4254 3.51155 16.0952 3.51155 16.0952C2.53691 15.4285 3.58502 15.4422 3.58502 15.4422C4.66373 15.518 5.23173 16.5492 5.23173 16.5492C6.18983 18.1914 7.74475 17.7166 8.35775 17.4422C8.45416 16.7479 8.73256 16.274 9.03977 16.0057C6.65376 15.7341 4.14555 14.813 4.14555 10.6968C4.14555 9.52403 4.56518 8.56575 5.25236 7.81346C5.14083 7.5429 4.77313 6.45031 5.35643 4.97064C5.35643 4.97064 6.2585 4.68193 8.31132 6.07177C9.1682 5.83375 10.0872 5.71439 11.0001 5.7103C11.913 5.71439 12.8327 5.83375 13.6912 6.07177C15.7415 4.68193 16.6423 4.97064 16.6423 4.97064C17.227 6.45031 16.8592 7.5429 16.7476 7.81346C17.4364 8.56575 17.8532 9.52403 17.8532 10.6968C17.8532 14.8228 15.3402 15.7312 12.9481 15.9972C13.3334 16.3305 13.6768 16.9843 13.6768 17.9865C13.6768 19.4238 13.6643 20.5806 13.6643 20.9345C13.6643 21.2203 13.8577 21.5553 14.4022 21.4498C18.6681 20.0278 21.7422 16.0025 21.7422 11.2579C21.7422 5.32499 16.9326 0.515625 11.0001 0.515625ZM4.28114 15.8182C4.25749 15.8716 4.17352 15.8876 4.09703 15.851C4.01912 15.8159 3.97536 15.7432 4.00062 15.6896C4.02374 15.6346 4.10788 15.6193 4.18562 15.6562C4.26371 15.6912 4.30818 15.7647 4.28114 15.8182ZM4.80954 16.2897C4.75831 16.3372 4.65816 16.3151 4.59021 16.2401C4.51994 16.1652 4.50678 16.065 4.55872 16.0168C4.61156 15.9693 4.70868 15.9916 4.77913 16.0665C4.84939 16.1422 4.86309 16.2417 4.80954 16.2897ZM5.17205 16.893C5.10623 16.9387 4.99861 16.8958 4.93208 16.8003C4.86626 16.7048 4.86626 16.5902 4.9335 16.5443C5.00021 16.4984 5.10623 16.5397 5.17365 16.6345C5.23929 16.7316 5.23929 16.8462 5.17205 16.893ZM5.78512 17.5916C5.72624 17.6565 5.60083 17.6391 5.50904 17.5505C5.41511 17.4639 5.38896 17.341 5.44802 17.276C5.50761 17.2109 5.63374 17.2292 5.72624 17.3171C5.81945 17.4036 5.84791 17.5274 5.78512 17.5916ZM6.57745 17.8275C6.55148 17.9116 6.43069 17.9498 6.30902 17.9141C6.18752 17.8773 6.10801 17.7787 6.13255 17.6937C6.15781 17.609 6.27913 17.5692 6.4017 17.6074C6.52302 17.6441 6.60271 17.7419 6.57745 17.8275ZM7.47916 17.9275C7.48218 18.0161 7.37901 18.0896 7.25129 18.0912C7.12285 18.094 7.01896 18.0223 7.01754 17.9352C7.01754 17.8457 7.1184 17.7729 7.24684 17.7708C7.37456 17.7683 7.47916 17.8395 7.47916 17.9275ZM8.36499 17.8935C8.38029 17.98 8.29152 18.0688 8.16469 18.0924C8.03999 18.1152 7.92454 18.0618 7.90871 17.9761C7.89323 17.8875 7.9836 17.7987 8.10812 17.7758C8.23513 17.7537 8.3488 17.8057 8.36499 17.8935Z" fill="#161614"/>
</svg>
