<svg viewBox="0 0 22 22" fill="none" xmlns="http://www.w3.org/2000/svg">
<path fill-rule="evenodd" clip-rule="evenodd" d="M12.8727 2.52116L17.3964 5.133C17.5238 4.99807 17.6725 4.87894 17.8413 4.7809C18.7795 4.24157 19.9762 4.5618 20.5211 5.5C21.0604 6.4382 20.7402 7.63483 19.802 8.17978C19.6345 8.27606 19.4586 8.34495 19.2795 8.38782V13.6135C19.4567 13.6565 19.6306 13.7249 19.7964 13.8202C20.7402 14.3652 21.0604 15.5618 20.5155 16.5C19.9762 17.4382 18.7739 17.7584 17.8357 17.2191C17.6489 17.1117 17.4866 16.9781 17.3507 16.8255L12.8546 19.4214C12.9189 19.6156 12.9537 19.8233 12.9537 20.0393C12.9537 21.118 12.0773 22 10.993 22C9.90875 22 9.03234 21.1236 9.03234 20.0393C9.03234 19.8466 9.06003 19.6604 9.11166 19.4846L4.58916 16.8734C4.46315 17.0057 4.31642 17.1226 4.15032 17.2191C3.2065 17.7584 2.00987 17.4382 1.47054 16.5C0.931219 15.5618 1.25144 14.3652 2.18965 13.8202C2.35553 13.7249 2.52949 13.6564 2.7065 13.6134V8.38782C2.52744 8.34495 2.35153 8.27606 2.18403 8.17978C1.24583 7.64045 0.925601 6.4382 1.46493 5.5C2.00425 4.5618 3.2065 4.24157 4.1447 4.7809C4.31257 4.8784 4.46066 4.99678 4.58758 5.1308L9.1125 2.51826C9.06033 2.34158 9.03234 2.15445 9.03234 1.96067C9.03234 0.876404 9.90875 0 10.993 0C12.0773 0 12.9537 0.876404 12.9537 1.96067C12.9537 2.15551 12.9254 2.34363 12.8727 2.52116ZM12.4014 3.32588L16.9358 5.94393C16.7957 6.43622 16.8471 6.98207 17.1222 7.46067C17.3983 7.94084 17.8479 8.25913 18.3469 8.38318V13.6154C18.3215 13.6217 18.2962 13.6284 18.2711 13.6357L12.3487 3.37817C12.3666 3.36107 12.3841 3.34364 12.4014 3.32588ZM9.63856 3.37936L3.71632 13.6367C3.69072 13.6292 3.66497 13.6223 3.63908 13.6159V8.38318C4.13812 8.25913 4.58778 7.94084 4.8638 7.46067C5.13947 6.98112 5.19057 6.43406 5.04937 5.94101L9.58256 3.32369C9.60086 3.34262 9.61953 3.36118 9.63856 3.37936ZM11.5408 3.84404L17.4617 14.099C17.3292 14.2254 17.2125 14.3726 17.1166 14.5393C17.0213 14.7051 16.9529 14.8791 16.9099 15.0562H5.07622C5.03327 14.8792 4.96478 14.7052 4.86942 14.5393C4.7732 14.3737 4.65666 14.2273 4.52481 14.1015L10.4468 3.84452C10.6202 3.89455 10.8034 3.92135 10.993 3.92135C11.1832 3.92135 11.367 3.89438 11.5408 3.84404ZM12.443 18.7184L16.948 16.1174C16.9345 16.0749 16.9224 16.032 16.9118 15.9888H5.07371C5.06743 16.0142 5.06065 16.0395 5.05337 16.0646L9.5805 18.6784C9.93695 18.3085 10.4377 18.0787 10.993 18.0787C11.568 18.0787 12.0846 18.3251 12.443 18.7184Z" fill="#E535AB"/>
</svg>
