<svg viewBox="0 0 22 22" fill="none" xmlns="http://www.w3.org/2000/svg">
<g clip-path="url(#clip0_143_2425)">
<path d="M8.14739 17.0139C8.14739 17.0139 7.30668 17.5028 8.7457 17.6683C10.489 17.8671 11.38 17.8386 13.3012 17.475C13.3012 17.475 13.8063 17.7917 14.5117 18.066C10.2049 19.9118 4.76467 17.9591 8.14739 17.0139Z" fill="#5382A1"/>
<path d="M7.62132 14.6052C7.62132 14.6052 6.67838 15.3032 8.11847 15.4522C9.98075 15.6443 11.4514 15.66 13.9963 15.17C13.9963 15.17 14.3483 15.5268 14.9018 15.722C9.69464 17.2446 3.89485 15.842 7.62132 14.6052Z" fill="#5382A1"/>
<path d="M12.0578 10.5193C13.119 11.7411 11.779 12.8405 11.779 12.8405C11.779 12.8405 14.4735 11.4495 13.236 9.70764C12.0803 8.08325 11.194 7.27616 15.9921 4.49341C15.9921 4.49341 8.4606 6.37443 12.0578 10.5193Z" fill="#E76F00"/>
<path d="M17.7538 18.7954C17.7538 18.7954 18.3759 19.3081 17.0686 19.7046C14.5827 20.4577 6.72197 20.6851 4.5383 19.7347C3.75332 19.3932 5.22537 18.9193 5.68842 18.8198C6.17134 18.7151 6.44731 18.7346 6.44731 18.7346C5.57434 18.1196 0.804778 19.9421 4.02461 20.4641C12.8056 21.8881 20.0314 19.8228 17.7538 18.7954Z" fill="#5382A1"/>
<path d="M8.55182 12.1095C8.55182 12.1095 4.55336 13.0592 7.13586 13.4041C8.22628 13.5501 10.4 13.5171 12.4247 13.3474C14.0795 13.2078 15.7411 12.9111 15.7411 12.9111C15.7411 12.9111 15.1576 13.1609 14.7354 13.4492C10.6751 14.5171 2.83119 14.0203 5.08934 12.928C6.99906 12.0048 8.55182 12.1095 8.55182 12.1095Z" fill="#5382A1"/>
<path d="M15.7246 16.1188C19.8521 13.974 17.9437 11.9128 16.6116 12.1905C16.2852 12.2585 16.1396 12.3174 16.1396 12.3174C16.1396 12.3174 16.2608 12.1275 16.4923 12.0453C19.1275 11.1188 21.1542 14.7778 15.6416 16.2269C15.6416 16.227 15.7055 16.1699 15.7246 16.1188Z" fill="#5382A1"/>
<path d="M13.2361 0C13.2361 0 15.522 2.28667 11.0681 5.80293C7.49642 8.62357 10.2536 10.2318 11.0666 12.0693C8.98175 10.1883 7.45177 8.53243 8.4782 6.9913C9.98476 4.72906 14.1584 3.63224 13.2361 0Z" fill="#E76F00"/>
<path d="M8.95723 21.9309C12.9192 22.1845 19.0032 21.7902 19.1473 19.9155C19.1473 19.9155 18.8703 20.6262 15.8729 21.1906C12.4913 21.827 8.32062 21.7527 5.84692 21.3448C5.84698 21.3448 6.35332 21.7639 8.95723 21.9309Z" fill="#5382A1"/>
</g>
<defs>
<clipPath id="clip0_143_2425">
<rect width="22" height="22" fill="white"/>
</clipPath>
</defs>
</svg>
