<svg viewBox="0 0 22 22" fill="none" xmlns="http://www.w3.org/2000/svg">
<g clip-path="url(#clip0_143_2420)">
<circle cx="11" cy="11" r="11" fill="white"/>
<path d="M10.2796 0.00592028C10.2323 0.0102207 10.0817 0.0252723 9.94624 0.0360234C6.82151 0.317702 3.89462 2.00348 2.04086 4.59449C1.0086 6.03514 0.348387 7.66931 0.0989247 9.40024C0.0107527 10.0045 0 10.1829 0 11.0022C0 11.8214 0.0107527 11.9999 0.0989247 12.6041C0.696774 16.7346 3.63656 20.2051 7.62366 21.4909C8.33763 21.721 9.09032 21.878 9.94624 21.9726C10.2796 22.0091 11.7204 22.0091 12.0538 21.9726C13.5312 21.8092 14.7828 21.4436 16.0172 20.8136C16.2065 20.7169 16.243 20.6911 16.2172 20.6696C16.2 20.6566 15.3935 19.5751 14.4258 18.2678L12.6667 15.8918L10.4624 12.6299C9.24946 10.8366 8.25161 9.37014 8.24301 9.37014C8.23441 9.36799 8.22581 10.8172 8.22151 12.5869C8.21505 15.6853 8.2129 15.81 8.17419 15.8832C8.11828 15.9885 8.07527 16.0315 7.98495 16.0788C7.91613 16.1132 7.85591 16.1197 7.53118 16.1197H7.15914L7.06021 16.0573C6.9957 16.0165 6.94839 15.9627 6.91613 15.9004L6.87097 15.8036L6.87527 11.4924L6.88172 7.17906L6.94839 7.0952C6.9828 7.05005 7.05591 6.99199 7.10753 6.96404C7.1957 6.92103 7.23011 6.91673 7.60215 6.91673C8.04086 6.91673 8.11398 6.93393 8.22796 7.05865C8.26022 7.09305 9.45376 8.89064 10.8817 11.0559C12.3097 13.2212 14.2624 16.1777 15.2215 17.6291L16.9634 20.2675L17.0516 20.2094C17.8323 19.702 18.6581 18.9795 19.3118 18.2269C20.7032 16.6293 21.6 14.6812 21.9011 12.6041C21.9892 11.9999 22 11.8214 22 11.0022C22 10.1829 21.9892 10.0045 21.9011 9.40024C21.3032 5.26966 18.3634 1.79921 14.3763 0.513373C13.6731 0.285449 12.9247 0.128483 12.086 0.0338732C11.8796 0.0123709 10.4581 -0.0112815 10.2796 0.00592028ZM14.7828 6.65871C14.886 6.71031 14.9699 6.80922 15 6.91243C15.0172 6.96834 15.0215 8.16386 15.0172 10.8581L15.0108 14.7242L14.329 13.6792L13.6452 12.6342V9.82383C13.6452 8.00689 13.6538 6.98554 13.6667 6.93608C13.7011 6.81567 13.7763 6.72106 13.8796 6.66516C13.9677 6.62 14 6.6157 14.3376 6.6157C14.6559 6.6157 14.7118 6.62 14.7828 6.65871Z" fill="black"/>
</g>
<defs>
<clipPath id="clip0_143_2420">
<rect width="22" height="22" fill="white"/>
</clipPath>
</defs>
</svg>
