<svg viewBox="0 0 22 22" fill="none" xmlns="http://www.w3.org/2000/svg">
<g clip-path="url(#clip0_143_2418)">
<path fill-rule="evenodd" clip-rule="evenodd" d="M21.5989 13.1785C21.4688 12.7901 21.1278 12.5195 20.6868 12.4545C20.4789 12.424 20.2408 12.437 19.959 12.4943C19.4679 12.5941 19.1035 12.6321 18.8376 12.6395C19.8413 10.9696 20.6575 9.06537 21.1274 7.27284C21.8871 4.37445 21.4811 3.05404 21.0067 2.45674C19.7511 0.875944 17.9193 0.0266606 15.7092 0.000626833C14.5303 -0.0135509 13.4953 0.215813 12.9554 0.38071C12.4527 0.293371 11.9122 0.244564 11.345 0.235524C10.282 0.218826 9.34268 0.447153 8.54008 0.916452C8.09564 0.76845 7.38257 0.559735 6.55901 0.426504C4.62201 0.11316 3.06092 0.357344 1.91905 1.15219C0.536342 2.1146 -0.104679 3.78669 0.0138895 6.12207C0.0514904 6.86356 0.472471 9.11951 1.13525 11.2591C1.51617 12.4888 1.92236 13.51 2.34254 14.2946C2.93839 15.4071 3.57595 16.0623 4.29172 16.2976C4.69295 16.4293 5.42186 16.5215 6.18857 15.8924C6.28573 16.0083 6.41533 16.1236 6.58744 16.2306C6.80592 16.3664 7.07314 16.4773 7.33996 16.5431C8.30169 16.78 9.20251 16.7207 9.97102 16.3887C9.97573 16.5234 9.97939 16.6521 9.9825 16.7632C9.98762 16.9434 9.99263 17.1201 9.99935 17.2854C10.0449 18.4029 10.122 19.2718 10.3506 19.8797C10.3632 19.9132 10.3801 19.9641 10.3979 20.0181C10.5119 20.3622 10.7027 20.9382 11.1878 21.3894C11.6903 21.8567 12.2981 22 12.8547 22C13.1338 22 13.4002 21.9639 13.6338 21.9146C14.4665 21.7388 15.4123 21.4708 16.0964 20.511C16.7432 19.6036 17.0576 18.2369 17.1146 16.0833C17.1219 16.0225 17.1287 15.9643 17.1353 15.9089C17.1397 15.8715 17.1442 15.8333 17.1488 15.7951L17.3012 15.8083L17.3405 15.8109C18.1886 15.849 19.2257 15.6718 19.8626 15.3803C20.3659 15.1501 21.9787 14.3112 21.5989 13.1785" fill="black"/>
<path fill-rule="evenodd" clip-rule="evenodd" d="M20.0636 13.2396C17.5653 13.7553 17.3935 12.9088 17.3935 12.9088C20.0314 8.99169 21.1341 4.01949 20.1825 2.80257C17.5864 -0.516949 13.0924 1.05297 13.0174 1.09373L12.9933 1.09805C12.4997 0.995512 11.9473 0.934425 11.3265 0.924286C10.196 0.905746 9.33849 1.22087 8.68781 1.71469C8.68781 1.71469 0.671014 -1.59042 1.04386 5.87148C1.12318 7.45895 3.31742 17.8829 5.93462 14.7344C6.8912 13.5831 7.81546 12.6096 7.81546 12.6096C8.27453 12.9148 8.82409 13.0705 9.40023 13.0146L9.44498 12.9766C9.43107 13.1195 9.43743 13.2593 9.46291 13.4248C8.78868 14.1787 8.9868 14.3111 7.63899 14.5887C6.27519 14.87 7.07636 15.3708 7.59946 15.5017C8.2336 15.6604 9.70072 15.8852 10.692 14.4964L10.6525 14.6549C10.9167 14.8666 11.1022 16.0322 11.0711 17.0889C11.04 18.1455 11.0192 18.871 11.2274 19.4376C11.4355 20.0042 11.643 21.2792 13.4148 20.8992C14.8953 20.5817 15.6625 19.7589 15.7693 18.3864C15.845 17.4107 16.0164 17.5549 16.0272 16.6825L16.1647 16.2695C16.3233 14.9468 16.1899 14.5201 17.102 14.7186L17.3237 14.7381C17.995 14.7687 18.8737 14.63 19.3894 14.3902C20.4999 13.8744 21.1584 13.0133 20.0635 13.2396H20.0636" fill="#336791"/>
<path fill-rule="evenodd" clip-rule="evenodd" d="M9.1448 6.54268C8.94301 6.51383 8.76018 6.54053 8.6677 6.61239C8.61565 6.65286 8.59958 6.69972 8.59526 6.73199C8.58363 6.81744 8.64196 6.91189 8.67776 6.96063C8.77911 7.09856 8.9272 7.19338 9.07378 7.21427C9.09502 7.21729 9.11612 7.21875 9.13714 7.21875C9.38159 7.21875 9.60378 7.02335 9.62337 6.87911C9.64786 6.69848 9.39245 6.57806 9.1448 6.54268" fill="white"/>
<path fill-rule="evenodd" clip-rule="evenodd" d="M16.4989 6.71649H16.4988C16.4777 6.55223 16.2081 6.5054 15.9524 6.54396C15.697 6.58257 15.4493 6.70758 15.47 6.87221C15.4866 7.00024 15.6997 7.2188 15.952 7.21875C15.9733 7.21875 15.9948 7.21721 16.0165 7.21392C16.1849 7.18863 16.3085 7.07263 16.3672 7.00575C16.4566 6.90392 16.5083 6.79032 16.4989 6.71649" fill="white"/>
<path fill-rule="evenodd" clip-rule="evenodd" d="M20.7092 13.3591C20.6143 13.0722 20.309 12.9799 19.8016 13.0847C18.2951 13.3956 17.7555 13.1802 17.5784 13.0498C18.7494 11.2658 19.7127 9.10953 20.2323 7.09759C20.4785 6.14457 20.6145 5.25953 20.6256 4.53818C20.6379 3.74629 20.5031 3.16449 20.2249 2.80905C19.1035 1.37615 17.4577 0.607552 15.4655 0.586429C14.0959 0.571044 12.9387 0.921578 12.7144 1.02012C12.242 0.902632 11.727 0.830507 11.1663 0.821306C10.1381 0.804684 9.24942 1.05084 8.51358 1.55255C8.19396 1.43363 7.36793 1.15007 6.35783 0.987372C4.61139 0.706143 3.22365 0.919204 2.23329 1.62082C1.05158 2.45802 0.506041 3.95455 0.611755 6.06874C0.647323 6.7801 1.05257 8.96824 1.6922 11.0638C2.53411 13.822 3.44923 15.3834 4.41218 15.7045C4.52487 15.7421 4.65487 15.7684 4.79814 15.7684C5.14941 15.7684 5.58004 15.6101 6.02812 15.0714C6.77238 14.1761 7.46726 13.4258 7.72341 13.1531C8.10195 13.3564 8.51773 13.4698 8.94311 13.4812C8.94385 13.4923 8.94499 13.5034 8.94598 13.5145C8.86065 13.6157 8.79065 13.7044 8.73099 13.7802C8.43631 14.1542 8.37496 14.2321 7.42635 14.4275C7.15655 14.4831 6.4398 14.6308 6.42936 15.1332C6.41794 15.682 7.27646 15.9125 7.37431 15.937C7.7152 16.0223 8.04357 16.0644 8.35676 16.0644C9.11848 16.0644 9.78873 15.8141 10.3244 15.3297C10.3079 17.2864 10.3895 19.2146 10.6245 19.8021C10.8168 20.283 11.2869 21.4583 12.7718 21.4582C12.9896 21.4582 13.2295 21.4329 13.4933 21.3764C15.043 21.0441 15.7159 20.3592 15.9763 18.8492C16.1156 18.0422 16.3546 16.1151 16.467 15.0815C16.7043 15.1555 17.0099 15.1894 17.3401 15.1893C18.0289 15.1893 18.8237 15.043 19.3221 14.8116C19.882 14.5516 20.8925 13.9135 20.7092 13.3591V13.3591V13.3591ZM17.0187 6.37416C17.0136 6.67933 16.9716 6.95635 16.9271 7.24555C16.8792 7.55656 16.8296 7.8781 16.8172 8.26846C16.8048 8.64833 16.8523 9.04329 16.8982 9.42518C16.9909 10.1966 17.086 10.9908 16.7177 11.7745C16.6605 11.6728 16.6052 11.5619 16.5546 11.4391C16.5088 11.3281 16.4094 11.1499 16.2719 10.9032C15.7364 9.94302 14.4826 7.69448 15.1244 6.77693C15.3156 6.50377 15.8008 6.22303 17.0187 6.37416V6.37416V6.37416ZM15.5424 1.20437C17.3275 1.24379 18.7395 1.91157 19.7392 3.18905C20.506 4.16892 19.6617 8.62753 17.2174 12.474C17.1932 12.4433 17.1686 12.4123 17.1432 12.3806C17.1331 12.3679 17.1227 12.3549 17.1123 12.3419C17.7439 11.2987 17.6204 10.2667 17.5105 9.3516C17.4653 8.97609 17.4227 8.6214 17.4335 8.28827C17.4447 7.93507 17.4914 7.63227 17.5365 7.33942C17.5921 6.97849 17.6485 6.6051 17.6329 6.16488C17.6446 6.11873 17.6493 6.06417 17.6432 5.99941C17.6034 5.57725 17.1215 4.31397 16.1391 3.1704C15.6019 2.54502 14.8182 1.84509 13.7483 1.37301C14.2085 1.27763 14.8379 1.18869 15.5424 1.20437V1.20437V1.20437ZM5.55396 14.6772C5.06031 15.2707 4.71937 15.157 4.60727 15.1196C3.87677 14.8759 3.02923 13.3321 2.28195 10.8838C1.63535 8.76543 1.25746 6.63527 1.22758 6.03793C1.13314 4.14882 1.59107 2.83222 2.58871 2.12472C4.21227 0.973335 6.88159 1.66248 7.95417 2.01203C7.93874 2.02721 7.92271 2.04146 7.90742 2.0569C6.14738 3.83445 6.18913 6.87143 6.19344 7.05704C6.19329 7.12867 6.19927 7.23008 6.20753 7.36958C6.23781 7.88034 6.29415 8.83103 6.14362 9.90766C6.00367 10.9081 6.31206 11.8873 6.98958 12.5943C7.05973 12.6674 7.13294 12.7361 7.20858 12.8008C6.90697 13.1238 6.25156 13.8379 5.55396 14.6772V14.6772V14.6772ZM7.4348 12.1676C6.88871 11.5978 6.64073 10.8053 6.75431 9.99301C6.9133 8.85568 6.85458 7.86517 6.82307 7.33304C6.81866 7.25859 6.81476 7.19334 6.81243 7.14184C7.06957 6.91389 8.26112 6.2754 9.11084 6.47011C9.49868 6.55895 9.73489 6.82297 9.83313 7.27719C10.3416 9.62858 9.90046 10.6086 9.54602 11.3962C9.47295 11.5584 9.40394 11.7118 9.34498 11.8705L9.29932 11.9931C9.18366 12.3032 9.07607 12.5915 9.00938 12.8654C8.42892 12.8636 7.86418 12.6156 7.4348 12.1676V12.1676V12.1676ZM7.52388 15.3387C7.3544 15.2964 7.20194 15.2228 7.1125 15.1618C7.1872 15.1267 7.32017 15.0789 7.55075 15.0314C8.66671 14.8016 8.83901 14.6395 9.21536 14.1616C9.30169 14.0521 9.39949 13.9279 9.53493 13.7766C9.53498 13.7765 9.53503 13.7765 9.53508 13.7764C9.73686 13.5506 9.82912 13.5888 9.99647 13.6582C10.1321 13.7144 10.2642 13.8844 10.3178 14.0715C10.3431 14.1598 10.3716 14.3276 10.2784 14.458C9.49224 15.5588 8.34665 15.5446 7.52388 15.3387V15.3387V15.3387ZM13.3641 20.7734C11.9989 21.0659 11.5155 20.3693 11.197 19.5731C10.9914 19.0589 10.8904 16.7407 10.9621 14.1806C10.963 14.1465 10.9582 14.1136 10.9488 14.0827C10.9406 14.023 10.9281 13.9626 10.9106 13.9018C10.804 13.5293 10.5442 13.2177 10.2326 13.0886C10.1088 13.0373 9.88145 12.9431 9.60833 13.013C9.66661 12.773 9.76762 12.5021 9.87709 12.2086L9.92305 12.0851C9.9748 11.946 10.0396 11.8018 10.1083 11.6493C10.4792 10.8252 10.9872 9.69659 10.4359 7.14683C10.2294 6.19184 9.53977 5.7255 8.49435 5.83379C7.86758 5.89864 7.29424 6.15152 7.00826 6.29652C6.94677 6.32768 6.89053 6.35776 6.83799 6.38709C6.91778 5.42483 7.21939 3.6266 8.34748 2.48887C9.0577 1.77256 10.0036 1.41881 11.1562 1.43786C13.427 1.47506 14.8832 2.64044 15.705 3.61156C16.4132 4.44842 16.7967 5.29136 16.9497 5.74598C15.7988 5.62899 15.0161 5.8562 14.6193 6.42345C13.756 7.6574 15.0915 10.0525 15.7334 11.2035C15.8511 11.4145 15.9527 11.5968 15.9846 11.6742C16.1936 12.1808 16.4642 12.519 16.6618 12.7659C16.7224 12.8415 16.7811 12.9149 16.8258 12.9789C16.4772 13.0795 15.8511 13.3116 15.9082 14.4722C15.8622 15.0546 15.5349 17.7811 15.3687 18.7444C15.1492 20.017 14.6809 20.4911 13.3641 20.7734V20.7734V20.7734ZM19.0625 14.2524C18.7061 14.4178 18.1096 14.5419 17.5429 14.5686C16.917 14.5979 16.5985 14.4985 16.5235 14.4373C16.4883 13.7141 16.7575 13.6385 17.0424 13.5585C17.0872 13.5459 17.1309 13.5337 17.173 13.5189C17.1992 13.5403 17.2279 13.5614 17.2594 13.5822C17.7624 13.9142 18.6597 13.95 19.9263 13.6886C19.931 13.6876 19.9356 13.6867 19.9402 13.6857C19.7694 13.8455 19.477 14.0599 19.0625 14.2524V14.2524V14.2524Z" fill="white"/>
</g>
<defs>
<clipPath id="clip0_143_2418">
<rect width="22" height="22" fill="white"/>
</clipPath>
</defs>
</svg>
