<svg viewBox="0 0 22 22" fill="none" xmlns="http://www.w3.org/2000/svg">
<g clip-path="url(#clip0_143_2426)">
<path d="M10.8944 0.0859375C5.32289 0.0859379 5.67081 2.50209 5.67081 2.50209L5.67702 5.00519H10.9938V5.75675H3.56522C3.56522 5.75675 0 5.35242 0 10.9741C-3.97375e-07 16.5959 3.1118 16.3965 3.1118 16.3965H4.96894V13.7878C4.96894 13.7878 4.86884 10.676 8.03106 10.676H13.3043C13.3043 10.676 16.2671 10.7239 16.2671 7.81265V2.99898C16.2671 2.99898 16.7169 0.0859375 10.8944 0.0859375ZM7.96273 1.76917C8.49171 1.76917 8.91926 2.19671 8.91926 2.72569C8.91926 3.25467 8.49171 3.68221 7.96273 3.68221C7.43375 3.68221 7.00621 3.25467 7.00621 2.72569C7.00621 2.19671 7.43375 1.76917 7.96273 1.76917Z" fill="url(#paint0_linear_143_2426)"/>
<path d="M11.0526 21.9186C16.6241 21.9186 16.2762 19.5025 16.2762 19.5025L16.27 16.9994H10.9532V16.2478H18.3818C18.3818 16.2478 21.947 16.6521 21.947 11.0304C21.947 5.40869 18.8352 5.60805 18.8352 5.60805H16.9781V8.21675C16.9781 8.21675 17.0782 11.3285 13.916 11.3285H8.64266C8.64266 11.3285 5.67993 11.2807 5.67993 14.1919V19.0056C5.67993 19.0056 5.23011 21.9186 11.0526 21.9186ZM13.9843 20.2354C13.4553 20.2354 13.0278 19.8078 13.0278 19.2789C13.0278 18.7499 13.4553 18.3223 13.9843 18.3223C14.5133 18.3223 14.9408 18.7499 14.9408 19.2789C14.9408 19.8078 14.5133 20.2354 13.9843 20.2354Z" fill="url(#paint1_linear_143_2426)"/>
</g>
<defs>
<linearGradient id="paint0_linear_143_2426" x1="2.10915" y1="2.04974" x2="12.9853" y2="12.8174" gradientUnits="userSpaceOnUse">
<stop stop-color="#387EB8"/>
<stop offset="1" stop-color="#366994"/>
</linearGradient>
<linearGradient id="paint1_linear_143_2426" x1="8.78491" y1="8.96394" x2="20.4647" y2="20.0052" gradientUnits="userSpaceOnUse">
<stop stop-color="#FFE052"/>
<stop offset="1" stop-color="#FFC331"/>
</linearGradient>
<clipPath id="clip0_143_2426">
<rect width="22" height="22" fill="white"/>
</clipPath>
</defs>
</svg>
