<svg viewBox="0 0 22 22" fill="none" xmlns="http://www.w3.org/2000/svg">
<path fill-rule="evenodd" clip-rule="evenodd" d="M21.138 15.9873C19.964 16.5961 13.882 19.0838 12.5871 19.7552C11.2924 20.4268 10.573 20.4204 9.55019 19.9339C8.52733 19.4474 2.055 16.8467 0.889137 16.2923C0.306377 16.0153 0 15.7814 0 15.5605V13.3484C0 13.3484 8.42609 11.5235 9.78644 11.0381C11.1467 10.5526 11.6187 10.5351 12.7763 10.9569C13.934 11.3788 20.8559 12.6212 22 13.0381C22 13.0381 21.9995 15.0138 21.9995 15.2189C21.9997 15.4376 21.7356 15.6775 21.138 15.9873" fill="#912626"/>
<path fill-rule="evenodd" clip-rule="evenodd" d="M21.1376 13.8854C19.9636 14.4995 13.8818 17.0102 12.587 17.6879C11.2923 18.3657 10.573 18.3591 9.55015 17.8682C8.52724 17.3776 2.05521 14.7524 0.88938 14.1932C-0.276447 13.6337 -0.300939 13.2486 0.844349 12.7984C1.98955 12.3481 8.42609 9.81277 9.78657 9.32279C11.1468 8.83299 11.6187 8.81513 12.7762 9.241C13.9339 9.6667 19.9794 12.0826 21.1234 12.5032C22.2677 12.9243 22.3116 13.271 21.1376 13.8854" fill="#C6302B"/>
<path fill-rule="evenodd" clip-rule="evenodd" d="M21.138 12.5498C19.964 13.1586 13.882 15.6462 12.5871 16.3179C11.2924 16.9893 10.573 16.9828 9.55019 16.4964C8.52724 16.0102 2.055 13.4091 0.889137 12.8548C0.306377 12.5777 0 12.3442 0 12.1232V9.91086C0 9.91086 8.42609 8.0861 9.78644 7.60059C11.1467 7.11516 11.6187 7.09755 12.7763 7.51937C13.934 7.94128 20.8559 9.1834 22 9.60035C22 9.60035 21.9995 11.5761 21.9995 11.7814C21.9997 12 21.7356 12.2399 21.138 12.5498" fill="#912626"/>
<path fill-rule="evenodd" clip-rule="evenodd" d="M21.1376 10.4478C19.9636 11.0622 13.8818 13.5727 12.587 14.2506C11.2923 14.9282 10.573 14.9216 9.55015 14.4306C8.52724 13.9401 2.05521 11.3149 0.88938 10.7557C-0.276447 10.1963 -0.300939 9.81119 0.844349 9.36082C1.98955 8.9107 8.42609 6.37523 9.78657 5.88534C11.1468 5.39544 11.6187 5.37767 12.7762 5.80346C13.9339 6.22916 19.9794 8.64488 21.1234 9.06566C22.2677 9.48661 22.3116 9.83345 21.1376 10.4478V10.4478" fill="#C6302B"/>
<path fill-rule="evenodd" clip-rule="evenodd" d="M21.138 8.76835C19.964 9.37715 13.882 11.8649 12.5871 12.5367C11.2924 13.2081 10.573 13.2015 9.55019 12.7151C8.52724 12.2289 2.055 9.62774 0.889137 9.07357C0.306377 8.79639 0 8.56274 0 8.34199V6.1295C0 6.1295 8.42609 4.30481 9.78644 3.81937C11.1467 3.33385 11.6187 3.31633 12.7763 3.73815C13.934 4.16007 20.8559 5.4022 22 5.81916C22 5.81916 21.9995 7.79492 21.9995 8.00019C21.9997 8.21863 21.7356 8.45852 21.138 8.76835" fill="#912626"/>
<path fill-rule="evenodd" clip-rule="evenodd" d="M21.1376 6.48328C19.9636 7.07484 13.8818 9.49258 12.587 10.1452C11.2923 10.7978 10.573 10.7914 9.55015 10.3188C8.52733 9.84619 2.05521 7.31844 0.88938 6.77981C-0.276447 6.24118 -0.300939 5.87021 0.844349 5.43659C1.98955 5.00306 8.42609 2.56172 9.78657 2.0898C11.1468 1.61797 11.6187 1.60102 12.7762 2.01104C13.9339 2.42106 19.9794 4.74733 21.1234 5.15253C22.2677 5.55764 22.3116 5.89172 21.1376 6.48328" fill="#C6302B"/>
<path fill-rule="evenodd" clip-rule="evenodd" d="M13.75 4.31626L11.8683 4.50755L11.447 5.5L10.7666 4.39251L8.59375 4.20129L10.2151 3.62882L9.72865 2.75L11.2466 3.33128L12.6776 2.87252L12.2909 3.78124L13.75 4.31626" fill="white"/>
<path fill-rule="evenodd" clip-rule="evenodd" d="M11.4008 9.28125L7.5625 7.93346L13.0625 7.21875L11.4008 9.28125" fill="white"/>
<path fill-rule="evenodd" clip-rule="evenodd" d="M6.53125 4.8125C8.05006 4.8125 9.28125 5.35121 9.28125 6.01562C9.28125 6.68013 8.05006 7.21875 6.53125 7.21875C5.01253 7.21875 3.78125 6.68013 3.78125 6.01562C3.78125 5.35121 5.01253 4.8125 6.53125 4.8125" fill="white"/>
<path fill-rule="evenodd" clip-rule="evenodd" d="M16.1562 4.8125L18.9063 6.01623L16.1586 7.21875L16.1562 4.8125" fill="#621B1C"/>
<path fill-rule="evenodd" clip-rule="evenodd" d="M12.7188 6.07754L16.1536 4.8125L16.1562 7.09607L15.8195 7.21875L12.7188 6.07754" fill="#9A2928"/>
</svg>
