<svg viewBox="0 0 22 22" fill="none" xmlns="http://www.w3.org/2000/svg">
<g clip-path="url(#clip0_143_2427)">
<path fill-rule="evenodd" clip-rule="evenodd" d="M16.8948 14.4354L4.63428 21.7156L20.5093 20.6384L21.732 4.63086L16.8948 14.4354V14.4354Z" fill="url(#paint0_linear_143_2427)"/>
<path fill-rule="evenodd" clip-rule="evenodd" d="M20.5354 20.6273L19.171 11.2097L15.4543 16.1174L20.5354 20.6273V20.6273Z" fill="url(#paint1_linear_143_2427)"/>
<path fill-rule="evenodd" clip-rule="evenodd" d="M20.5539 20.6272L10.5576 19.8425L4.6875 21.6949L20.5539 20.6272V20.6272Z" fill="url(#paint2_linear_143_2427)"/>
<path fill-rule="evenodd" clip-rule="evenodd" d="M4.70154 21.697L7.19874 13.5161L1.70361 14.6911L4.70154 21.697V21.697Z" fill="url(#paint3_linear_143_2427)"/>
<path fill-rule="evenodd" clip-rule="evenodd" d="M15.4533 16.1446L13.1556 7.14429L6.57983 13.3081L15.4533 16.1446V16.1446Z" fill="url(#paint4_linear_143_2427)"/>
<path fill-rule="evenodd" clip-rule="evenodd" d="M21.2107 7.27109L14.9948 2.19434L13.2639 7.79026L21.2107 7.27109V7.27109Z" fill="url(#paint5_linear_143_2427)"/>
<path fill-rule="evenodd" clip-rule="evenodd" d="M18.3038 0.384274L14.648 2.40457L12.3416 0.357178L18.3038 0.384274V0.384274Z" fill="url(#paint6_linear_143_2427)"/>
<path fill-rule="evenodd" clip-rule="evenodd" d="M0.257812 17.4354L1.78929 14.6424L0.550452 11.3149L0.257812 17.4354V17.4354Z" fill="url(#paint7_linear_143_2427)"/>
<path fill-rule="evenodd" clip-rule="evenodd" d="M0.468018 11.2097L1.71445 14.7453L7.13045 13.5302L13.3138 7.78358L15.0588 2.24087L12.3111 0.300781L7.63975 2.04903C6.16799 3.41794 3.31204 6.12648 3.20908 6.17742C3.10719 6.22944 1.32318 9.6013 0.468018 11.2097V11.2097V11.2097Z" fill="white"/>
<path fill-rule="evenodd" clip-rule="evenodd" d="M4.84474 4.85849C8.03451 1.69581 12.1466 -0.172745 13.7247 1.41943C15.3018 3.01161 13.6293 6.88096 10.4396 10.0425C7.2498 13.2041 3.18861 15.1757 1.61161 13.5835C0.0335229 11.9924 1.65496 8.02008 4.84474 4.85849V4.85849V4.85849Z" fill="url(#paint8_linear_143_2427)"/>
<path fill-rule="evenodd" clip-rule="evenodd" d="M4.70166 21.6937L7.17934 13.4868L15.4079 16.1303C12.4328 18.9202 9.12377 21.2786 4.70166 21.6937V21.6937V21.6937Z" fill="url(#paint9_linear_143_2427)"/>
<path fill-rule="evenodd" clip-rule="evenodd" d="M13.3247 7.76731L15.4371 16.1346C17.9224 13.5215 20.153 10.7121 21.2454 7.2373L13.3247 7.76731V7.76731V7.76731Z" fill="url(#paint10_linear_143_2427)"/>
<path fill-rule="evenodd" clip-rule="evenodd" d="M21.2239 7.27979C22.0693 4.72841 22.2644 1.06825 18.2779 0.388672L15.0068 2.19545L21.2239 7.27979V7.27979V7.27979Z" fill="url(#paint11_linear_143_2427)"/>
<path fill-rule="evenodd" clip-rule="evenodd" d="M0.257812 17.3986C0.374868 21.6095 3.4129 21.6723 4.70702 21.7092L1.71776 14.728L0.257812 17.3986V17.3986V17.3986Z" fill="#9E1209"/>
<path fill-rule="evenodd" clip-rule="evenodd" d="M13.3364 7.78034C15.2462 8.95415 19.095 11.3115 19.1731 11.3549C19.2944 11.4232 20.8324 8.76122 21.1814 7.25684L13.3364 7.78034V7.78034V7.78034Z" fill="url(#paint12_radial_143_2427)"/>
<path fill-rule="evenodd" clip-rule="evenodd" d="M7.17603 13.4868L10.4883 19.8772C12.4468 18.815 13.9804 17.5209 15.3851 16.1347L7.17603 13.4868V13.4868V13.4868Z" fill="url(#paint13_radial_143_2427)"/>
<path fill-rule="evenodd" clip-rule="evenodd" d="M1.70466 14.7365L1.23535 20.3248C2.12086 21.5344 3.33911 21.6395 4.61697 21.5453C3.69244 19.2442 1.84556 14.6433 1.70466 14.7365V14.7365V14.7365Z" fill="url(#paint14_linear_143_2427)"/>
<path fill-rule="evenodd" clip-rule="evenodd" d="M14.9873 2.20948L21.5674 3.13292C21.2162 1.6448 20.1378 0.684504 18.2996 0.384277L14.9873 2.20948V2.20948V2.20948Z" fill="url(#paint15_linear_143_2427)"/>
</g>
<defs>
<linearGradient id="paint0_linear_143_2427" x1="23.1179" y1="21.4032" x2="18.5997" y2="13.4019" gradientUnits="userSpaceOnUse">
<stop stop-color="#FB7655"/>
<stop stop-color="#FB7655"/>
<stop offset="0.41" stop-color="#E42B1E"/>
<stop offset="0.99" stop-color="#990000"/>
<stop offset="1" stop-color="#990000"/>
</linearGradient>
<linearGradient id="paint1_linear_143_2427" x1="21.6892" y1="10.8064" x2="15.8049" y2="10.4718" gradientUnits="userSpaceOnUse">
<stop stop-color="#871101"/>
<stop stop-color="#871101"/>
<stop offset="0.99" stop-color="#911209"/>
<stop offset="1" stop-color="#911209"/>
</linearGradient>
<linearGradient id="paint2_linear_143_2427" x1="29.455" y1="23.9007" x2="29.4539" y2="19.9829" gradientUnits="userSpaceOnUse">
<stop stop-color="#871101"/>
<stop stop-color="#871101"/>
<stop offset="0.99" stop-color="#911209"/>
<stop offset="1" stop-color="#911209"/>
</linearGradient>
<linearGradient id="paint3_linear_143_2427" x1="3.56054" y1="16.7018" x2="5.16625" y2="18.8261" gradientUnits="userSpaceOnUse">
<stop stop-color="white"/>
<stop stop-color="white"/>
<stop offset="0.23" stop-color="#E57252"/>
<stop offset="0.46" stop-color="#DE3B20"/>
<stop offset="0.99" stop-color="#A60003"/>
<stop offset="1" stop-color="#A60003"/>
</linearGradient>
<linearGradient id="paint4_linear_143_2427" x1="7.80063" y1="8.86952" x2="8.14368" y2="14.7041" gradientUnits="userSpaceOnUse">
<stop stop-color="white"/>
<stop stop-color="white"/>
<stop offset="0.23" stop-color="#E4714E"/>
<stop offset="0.56" stop-color="#BE1A0D"/>
<stop offset="0.99" stop-color="#A80D00"/>
<stop offset="1" stop-color="#A80D00"/>
</linearGradient>
<linearGradient id="paint5_linear_143_2427" x1="13.6688" y1="3.24124" x2="13.9151" y2="7.5578" gradientUnits="userSpaceOnUse">
<stop stop-color="white"/>
<stop stop-color="white"/>
<stop offset="0.18" stop-color="#E46342"/>
<stop offset="0.4" stop-color="#C82410"/>
<stop offset="0.99" stop-color="#A80D00"/>
<stop offset="1" stop-color="#A80D00"/>
</linearGradient>
<linearGradient id="paint6_linear_143_2427" x1="18.1989" y1="1.63884" x2="18.259" y2="-0.524633" gradientUnits="userSpaceOnUse">
<stop stop-color="white"/>
<stop stop-color="white"/>
<stop offset="0.54" stop-color="#C81F11"/>
<stop offset="0.99" stop-color="#BF0905"/>
<stop offset="1" stop-color="#BF0905"/>
</linearGradient>
<linearGradient id="paint7_linear_143_2427" x1="0.653102" y1="14.9721" x2="1.01534" y2="14.9863" gradientUnits="userSpaceOnUse">
<stop stop-color="white"/>
<stop stop-color="white"/>
<stop offset="0.31" stop-color="#DE4024"/>
<stop offset="0.99" stop-color="#BF190B"/>
<stop offset="1" stop-color="#BF190B"/>
</linearGradient>
<linearGradient id="paint8_linear_143_2427" x1="6.84344" y1="25.3988" x2="23.4165" y2="8.25975" gradientUnits="userSpaceOnUse">
<stop stop-color="#BD0012"/>
<stop stop-color="#BD0012"/>
<stop offset="0.07" stop-color="white"/>
<stop offset="0.17" stop-color="white"/>
<stop offset="0.27" stop-color="#C82F1C"/>
<stop offset="0.33" stop-color="#820C01"/>
<stop offset="0.46" stop-color="#A31601"/>
<stop offset="0.72" stop-color="#B31301"/>
<stop offset="0.99" stop-color="#E82609"/>
<stop offset="1" stop-color="#E82609"/>
</linearGradient>
<linearGradient id="paint9_linear_143_2427" x1="11.415" y1="17.709" x2="8.87988" y2="15.8969" gradientUnits="userSpaceOnUse">
<stop stop-color="#8C0C01"/>
<stop stop-color="#8C0C01"/>
<stop offset="0.54" stop-color="#990C00"/>
<stop offset="0.99" stop-color="#A80D0E"/>
<stop offset="1" stop-color="#A80D0E"/>
</linearGradient>
<linearGradient id="paint10_linear_143_2427" x1="21.0155" y1="10.0837" x2="16.281" y2="7.41859" gradientUnits="userSpaceOnUse">
<stop stop-color="#7E110B"/>
<stop stop-color="#7E110B"/>
<stop offset="0.99" stop-color="#9E0C00"/>
<stop offset="1" stop-color="#9E0C00"/>
</linearGradient>
<linearGradient id="paint11_linear_143_2427" x1="22.3411" y1="4.27432" x2="20.0658" y2="2.08103" gradientUnits="userSpaceOnUse">
<stop stop-color="#79130D"/>
<stop stop-color="#79130D"/>
<stop offset="0.99" stop-color="#9E120B"/>
<stop offset="1" stop-color="#9E120B"/>
</linearGradient>
<radialGradient id="paint12_radial_143_2427" cx="0" cy="0" r="1" gradientUnits="userSpaceOnUse" gradientTransform="translate(15.8469 8.90518) scale(5.45801 2.85202)">
<stop stop-color="#A80D00"/>
<stop stop-color="#A80D00"/>
<stop offset="0.99" stop-color="#7E0E08"/>
<stop offset="1" stop-color="#7E0E08"/>
</radialGradient>
<radialGradient id="paint13_radial_143_2427" cx="0" cy="0" r="1" gradientUnits="userSpaceOnUse" gradientTransform="translate(8.28831 16.0979) scale(7.2557 5.64822)">
<stop stop-color="#A30C00"/>
<stop stop-color="#A30C00"/>
<stop offset="0.99" stop-color="#800E08"/>
<stop offset="1" stop-color="#800E08"/>
</radialGradient>
<linearGradient id="paint14_linear_143_2427" x1="3.51951" y1="17.1908" x2="1.49041" y2="16.7787" gradientUnits="userSpaceOnUse">
<stop stop-color="#8B2114"/>
<stop stop-color="#8B2114"/>
<stop offset="0.43" stop-color="#9E100A"/>
<stop offset="0.99" stop-color="#B3100C"/>
<stop offset="1" stop-color="#B3100C"/>
</linearGradient>
<linearGradient id="paint15_linear_143_2427" x1="15.9161" y1="1.51049" x2="16.0422" y2="3.3398" gradientUnits="userSpaceOnUse">
<stop stop-color="#B31000"/>
<stop stop-color="#B31000"/>
<stop offset="0.44" stop-color="#910F08"/>
<stop offset="0.99" stop-color="#791C12"/>
<stop offset="1" stop-color="#791C12"/>
</linearGradient>
<clipPath id="clip0_143_2427">
<rect width="22" height="22" fill="white"/>
</clipPath>
</defs>
</svg>
