<svg fill="none" xmlns="http://www.w3.org/2000/svg">
<path d="M11 4.383c-2.933 0-4.767 1.466-5.5 4.4 1.1-1.467 2.383-2.017 3.85-1.65.837.209 1.435.816 2.097 1.488 1.079 1.095 2.327 2.362 5.053 2.362 2.933 0 4.767-1.467 5.5-4.4-1.1 1.466-2.383 2.016-3.85 1.65-.837-.21-1.435-.816-2.097-1.488C14.974 5.65 13.726 4.383 11 4.383Zm-5.5 6.6c-2.933 0-4.767 1.466-5.5 4.4 1.1-1.467 2.383-2.017 3.85-1.65.837.209 1.435.816 2.097 1.488 1.078 1.095 2.327 2.362 5.053 2.362 2.933 0 4.767-1.467 5.5-4.4-1.1 1.466-2.383 2.017-3.85 1.65-.837-.21-1.435-.816-2.097-1.489-1.078-1.094-2.327-2.361-5.053-2.361Z" fill="url(#TailwindCSS__a)"/>
<defs>
<linearGradient id="TailwindCSS__a" x1="-.611" y1="8.607" x2="18.39" y2="19.562" gradientUnits="userSpaceOnUse">
<stop stop-color="#2298BD"/>
<stop offset="1" stop-color="#0ED7B5"/>
</linearGradient>
</defs>
</svg>