<svg viewBox="0 0 22 22" fill="none" xmlns="http://www.w3.org/2000/svg">
<g clip-path="url(#clip0_143_2423)">
<path d="M1.71875 0H20.2812C21.2305 0 22 0.769511 22 1.71875V20.2812C22 21.2305 21.2305 22 20.2812 22H1.71875C0.769511 22 0 21.2305 0 20.2812V1.71875C0 0.769511 0.769511 0 1.71875 0Z" fill="#3178C6"/>
<path d="M12.9351 17.2283V19.6019C13.3212 19.7997 13.7778 19.9481 14.3048 20.047C14.8319 20.1459 15.3874 20.1953 15.9714 20.1953C16.5405 20.1953 17.0812 20.1409 17.5934 20.0321C18.1056 19.9233 18.5548 19.7441 18.9407 19.4944C19.3267 19.2447 19.6323 18.9183 19.8576 18.5152C20.0827 18.1123 20.1953 17.6141 20.1953 17.0207C20.1953 16.5905 20.1309 16.2134 20.0023 15.8895C19.8736 15.5656 19.688 15.2775 19.4455 15.0254C19.2031 14.7732 18.9123 14.547 18.5733 14.3467C18.2343 14.1464 17.852 13.9573 17.4263 13.7793C17.1145 13.6507 16.835 13.5259 16.5875 13.4047C16.3401 13.2835 16.1297 13.16 15.9565 13.0338C15.7833 12.9077 15.6496 12.7742 15.5556 12.6332C15.4616 12.4923 15.4146 12.3329 15.4146 12.1548C15.4146 11.9916 15.4566 11.8446 15.5408 11.7135C15.6249 11.5825 15.7438 11.47 15.8971 11.3761C16.0505 11.282 16.2386 11.2092 16.4613 11.1572C16.684 11.1053 16.9315 11.0793 17.2037 11.0793C17.4017 11.0793 17.6107 11.0942 17.8309 11.1238C18.0512 11.1535 18.2726 11.1992 18.4954 11.2611C18.718 11.3229 18.9345 11.4007 19.1449 11.4947C19.3552 11.5887 19.5495 11.6975 19.7276 11.821V9.60326C19.3664 9.46481 18.9716 9.3622 18.5436 9.29543C18.1155 9.22866 17.6243 9.19531 17.07 9.19531C16.5058 9.19531 15.9714 9.2559 15.4666 9.37707C14.9618 9.49816 14.5176 9.6873 14.1341 9.94443C13.7505 10.2016 13.4474 10.5292 13.2247 10.9273C13.002 11.3254 12.8906 11.8013 12.8906 12.3551C12.8906 13.0622 13.0947 13.6655 13.5031 14.165C13.9114 14.6644 14.5312 15.0872 15.3626 15.4333C15.6893 15.5669 15.9937 15.6979 16.2757 15.8265C16.5578 15.9551 16.8016 16.0885 17.0069 16.227C17.2123 16.3654 17.3744 16.5162 17.4932 16.6794C17.6119 16.8426 17.6713 17.0281 17.6713 17.2358C17.6713 17.389 17.6342 17.5312 17.56 17.6623C17.4858 17.7933 17.3731 17.9071 17.2222 18.0035C17.0713 18.0999 16.8832 18.1753 16.658 18.2297C16.4329 18.2841 16.1693 18.3113 15.8674 18.3113C15.3527 18.3113 14.843 18.2211 14.3382 18.0405C13.8334 17.86 13.3657 17.5893 12.9351 17.2283ZM8.97892 11.3216H12.0312V9.36719H3.52344V11.3216H6.56087V20.0234H8.97892V11.3216Z" fill="white"/>
</g>
<defs>
<clipPath id="clip0_143_2423">
<rect width="22" height="22" fill="white"/>
</clipPath>
</defs>
</svg>
